<?xml version="1.0" encoding="UTF-8" standalone="no"?>
<svg
   version="1.0"
   width="140"
   height="110"
   viewBox="0 0 140.00006 110.00003"
   preserveAspectRatio="xMidYMid meet"
   id="svg38"
   sodipodi:docname="logo.svg"
   inkscape:version="1.1.1 (3bf5ae0d25, 2021-09-20)"
   xmlns:inkscape="http://www.inkscape.org/namespaces/inkscape"
   xmlns:sodipodi="http://sodipodi.sourceforge.net/DTD/sodipodi-0.dtd"
   xmlns="http://www.w3.org/2000/svg"
   xmlns:svg="http://www.w3.org/2000/svg">
  <defs
     id="defs42">
    <clipPath
       clipPathUnits="userSpaceOnUse"
       id="clipPath10628">
      <path
         id="path10630"
         style="fill:#ff0000;fill-opacity:1;fill-rule:nonzero;stroke:none"
         d="M 238.93359,115.91016 V 424.74609 H 548.24414 V 115.91016 Z m 89.79493,117.6289 c 2.29565,0.0965 3.64596,9.65073 5.44531,9.2461 0.0572,-1.0557 -0.008,-1.30928 0.2832,-0.14649 0.0559,-0.0449 0.11303,-0.11227 0.16992,-0.17773 0.12381,-1.68359 -0.094,-2.41182 0.30469,-0.82032 0.008,0.11663 0.0178,0.2169 0.0273,0.32813 0.20085,-0.36753 0.40902,-0.85647 0.625,-1.51367 0.0391,-0.11878 0.0781,-0.23862 0.11719,-0.35742 0.0159,-0.56438 0.006,-1.12832 0.0469,-1.69141 0.01,-0.13192 0.0335,0.26098 0.0469,0.39258 0.0255,0.25853 0.0777,0.51769 0.0684,0.77734 -0.0433,1.29454 -0.0974,1.39104 -0.46094,2.50391 -0.0167,0.051 0.0206,-0.10554 0.0312,-0.1582 0.0892,-1.78144 -0.0101,0.48979 -0.13086,0.76757 -0.0804,0.1849 -0.17106,0.36434 -0.26757,0.54102 -7.2e-4,0.55605 -0.0925,1.09948 -0.39454,1.70898 -0.0228,0.20832 -0.0636,0.40283 -0.13476,0.57032 -0.0987,0.23241 -0.21599,0.45529 -0.3418,0.67382 0.28469,1.5035 0.0386,2.55624 -0.81054,4 -0.13977,0.67192 -0.35437,1.33116 -0.51172,2 -0.36504,0.61453 -0.38075,0.65667 -0.4336,0.75782 -0.0825,0.37711 -0.18876,0.83275 -0.30664,1.32031 -0.004,0.0154 -0.005,0.0433 -0.01,0.0566 -0.003,0.007 -0.007,0.0142 -0.01,0.0215 -0.0472,0.19476 -0.1461,0.60664 -0.0586,0.25 5.8e-4,-0.0335 -0.004,-0.0679 -0.004,-0.10156 -0.54566,1.32426 -1.5155,2.47289 -1.91992,3.84766 -0.18303,0.62217 0.83337,-0.99516 1.25,-1.49219 0.0926,-0.26445 0.35881,-1.06105 0.27734,-0.79297 -0.12689,0.4174 -0.27609,0.82832 -0.41406,1.24219 -0.32015,0.57415 -0.62636,1.1568 -0.96094,1.72265 -0.0969,0.16391 -0.27818,0.26351 -0.38672,0.41993 -0.0734,0.10569 -0.0694,0.40277 -0.18164,0.33984 -0.1372,-0.0769 -0.01,-0.621 -0.0488,-0.46875 -0.11227,0.43544 -0.11712,0.8901 -0.17579,1.33594 -0.1428,0.38433 -0.28623,0.76946 -0.42773,1.1543 0.018,0.22036 0.0299,0.44113 0.0215,0.6621 -0.0798,2.10771 -0.40558,2.64726 -1.05664,4.46875 -0.47392,0.98339 -0.91007,1.98501 -1.42187,2.94922 -0.12472,0.23496 -0.32332,0.42354 -0.48242,0.63672 -0.69322,0.9288 -1.29389,1.91697 -1.97657,2.85352 -0.62816,0.83708 -0.90334,1.28292 -1.78711,2.01562 -1.38805,1.15083 -3.08154,1.74301 -4.58789,2.69922 -0.46986,0.24075 -0.93101,0.50095 -1.41015,0.72266 -1.80267,0.83408 -3.94241,1.20528 -5.90039,1.29101 l -0.59375,-0.0137 c -0.10622,-10e-4 -0.38752,0.0764 -0.32032,-0.006 0.0314,-0.0386 0.11021,-0.0602 0.19141,-0.0762 -0.73534,0.079 -1.47016,0.30135 -2.2207,0.19531 -2.43651,-0.12593 -5.18896,-0.4186 -7.55078,-0.98437 -0.34923,-0.0837 -0.6822,-0.22407 -1.02344,-0.33594 -2.17355,-0.79445 -4.48305,-1.62826 -6.12891,-3.33984 -1.53013,-1.59126 -1.34137,-1.28262 -1.85937,-2.40039 0.19112,0.0485 0.69746,0.29685 0.57226,0.14453 -0.22796,-0.2773 -0.62481,-0.3526 -0.91601,-0.5625 -0.54622,-0.39372 -1.13885,-0.74596 -1.5918,-1.24414 -1.20395,-1.32416 -2.16637,-3.22384 -1.9668,-5.06641 0.0799,-1.01127 0.0933,-0.26569 -0.34179,-1.72461 -0.48518,-1.62692 -0.82948,-3.15975 -0.9668,-4.85937 -0.0533,-0.97987 -0.15082,-1.95819 -0.16016,-2.93946 -0.0225,-2.24613 0.64355,0.53654 0.004,-3.14648 -0.12984,-0.74766 -0.44524,-1.45178 -0.63867,-2.18555 -0.15785,-0.59875 -0.11777,-1.26684 -0.41406,-1.81055 -0.28332,-0.51993 -0.83718,-0.83716 -1.25586,-1.25585 -7.13443,-7.13442 -0.029,-14.2399 7.10547,-7.10547 0.41869,0.41868 0.94608,0.75124 1.25586,1.25586 2.5893,4.21812 3.75653,7.39036 4.06445,12.26367 -0.10759,3.13176 -0.16864,1.71927 0.0644,4.24023 0.0555,0.33952 0.11504,0.67765 0.16797,1.01758 0.057,0.36569 0.0308,0.75285 0.16016,1.09961 0.33028,0.88521 0.2215,-0.1074 0.54297,1.45508 0.15393,0.74819 0.24568,1.50751 0.35546,2.26367 0.67835,0.69755 1.32956,1.42185 1.9961,2.13086 0.2976,0.49583 0.54927,1.02099 0.89258,1.48633 0.0501,0.0677 0.16564,0.0386 0.24804,0.0566 0.30671,0.067 0.004,-0.0357 0.60156,0.18164 0.18514,0.0673 0.36759,0.14439 0.55079,0.2168 0.35408,0.12449 0.70646,0.24851 1.06054,0.37304 0.24324,0.0783 0.48046,0.18353 0.73047,0.23633 0.1348,0.0285 1.32248,0.13146 1.48633,0.15039 1.09256,0.12642 2.18061,0.33693 3.28125,0.34375 0.003,2e-5 0.005,-10e-6 0.008,0 -0.0635,0.002 0.22738,-0.0354 0.3418,-0.0488 0.0834,-0.01 -0.18263,0.0293 -0.24805,0.041 0.47322,-0.0337 0.94619,-0.088 1.41992,-0.11328 0.10768,-0.006 1.18457,0.0169 1.29297,0.0195 0.13164,0.004 0.26653,0.0385 0.39453,0.008 0.0488,-0.0116 0.0369,-0.10598 0.084,-0.12305 0.23337,-0.0845 0.48791,-0.10165 0.72656,-0.16992 0.46752,-0.13362 0.7402,-0.26534 1.12891,-0.52148 0.13256,-0.0823 0.2619,-0.17063 0.39844,-0.2461 0.55095,-0.30469 1.10704,-0.60107 1.66406,-0.89453 0.25805,-0.13595 0.52099,-0.26085 0.78125,-0.39258 0.0548,-0.0736 0.11737,-0.15863 0.24219,-0.33007 0.63533,-0.92306 1.24581,-1.85644 1.9082,-2.76172 0.19634,-0.26835 0.45375,-0.49808 0.59961,-0.79688 0.12664,-0.25936 0.13464,-0.56291 0.20117,-0.84375 0.0745,-0.21827 0.1481,-0.43602 0.22266,-0.65429 -0.004,-0.16444 0.0111,-0.62247 0.0684,-0.8086 0.001,-0.005 0.004,8.6e-4 0.006,-0.002 0.0398,-0.77404 0.0565,-1.55149 0.23438,-2.30274 0.0761,-0.32156 0.22998,-0.61543 0.39648,-0.90429 0.021,-0.0781 0.0247,-0.0937 0.0371,-0.14063 0.002,-0.003 0.006,-0.0121 0.008,-0.0156 0.32149,-1.18308 0.47543,-1.98124 1.07812,-3.0625 1.07621,-1.93077 0.84458,-1.44583 0.96875,-1.51172 -0.0464,0.0421 0.21534,-0.45185 0.50781,-0.9961 0.0402,-0.3015 0.08,-0.60324 0.12305,-0.90429 0.11393,-0.27821 0.24006,-0.5528 0.3457,-0.83399 -0.074,0.18752 -0.17934,0.42694 -0.27148,0.52149 0.28375,-0.95552 0.48043,-1.94211 0.85156,-2.86719 0.0568,-0.14149 0.15914,-0.32057 0.27344,-0.50195 0.1108,-0.59483 0.23441,-1.18506 0.41015,-1.75977 -0.002,-0.2715 0.0134,-0.53847 0.0254,-0.90625 0.0113,-0.15213 -0.0163,-0.31275 0.0332,-0.45703 0.29316,-0.85418 0.53972,-1.73721 0.95898,-2.53516 0.0173,-0.48766 0.0996,-0.95614 0.39453,-1.48046 -0.015,0.001 0.0316,-0.46169 0.13477,-0.63477 -0.0412,0.20381 -0.0818,0.40752 -0.12305,0.61133 0.0365,-0.0637 0.0684,-0.12568 0.11133,-0.19141 0.0145,-0.0222 0.0335,-0.041 0.0488,-0.0625 0.0489,-0.21103 0.10128,-0.42066 0.16406,-0.64062 -0.0668,0.0931 -0.14064,0.18314 -0.19922,0.28125 0.0714,-0.35355 0.14153,-0.707 0.21289,-1.06055 0.0537,-0.92858 0.37723,-2.03165 0.42383,-2.33594 0.17916,-0.37861 0.35796,-0.75616 0.53711,-1.13476 0.74172,-1.56753 1.39811,-2.17138 1.99024,-2.14649 z m -3.12891,7.03711 c -0.0467,0.20134 -0.0815,0.39122 -0.11719,0.58203 0.0808,-0.25683 0.17452,-0.51904 0.27735,-0.78515 -0.0581,0.0639 -0.10998,0.13298 -0.16016,0.20312 z m -0.11719,0.58203 c -0.0861,0.27365 -0.16423,0.54226 -0.22851,0.80078 0.0354,-0.0525 0.0754,-0.10868 0.11914,-0.16796 0.0287,-0.2025 0.0683,-0.41302 0.10937,-0.63282 z m -0.22851,0.80078 c -0.033,0.049 -0.0877,0.11562 -0.11133,0.15625 -0.0411,0.0707 -0.0714,0.1465 -0.10938,0.21875 -0.007,0.18595 -0.0129,0.38036 -0.008,0.57813 0.0142,-0.0119 0.0242,-0.025 0.0391,-0.0371 0.0526,-0.29453 0.10804,-0.58862 0.18946,-0.91602 z m -0.18946,0.91602 c -0.0134,0.0752 -0.0233,0.14418 -0.0352,0.2168 0.003,0.0989 0.006,0.19083 0.008,0.29492 0.24753,1.19552 0.12519,0.64857 0.23242,-0.68164 -0.0713,0.0614 -0.144,0.12005 -0.20508,0.16992 z m -0.0352,0.2168 c -0.002,-0.0603 -0.002,-0.12099 -0.004,-0.17969 -0.29634,0.24898 -0.45828,0.48128 -0.42578,1.5918 0.0408,0.19105 0.0619,0.29007 0.0879,0.41015 0.0494,-0.0575 0.10045,-0.10857 0.15234,-0.16601 0.0225,-0.38568 0.0748,-0.95309 0.18946,-1.65625 z m -5.30078,15.05664 c -0.0144,0.0531 -0.0238,0.0915 -0.0391,0.14648 0.16489,-0.28549 0.34162,-0.56737 0.4668,-0.86914 0.1079,-0.26016 -0.27787,0.46673 -0.42773,0.72266 z m -0.0391,0.14648 c -0.002,0.003 -0.004,0.006 -0.006,0.01 -0.0403,0.1496 -0.0963,0.35882 -0.0703,0.26953 0.0328,-0.11258 0.0471,-0.1743 0.0762,-0.2793 z m -0.63672,3.2168 c -0.013,0.25289 -0.0303,0.50471 -0.0547,0.75586 0.059,-0.17263 0.11682,-0.34495 0.17578,-0.51758 -0.0399,-0.0739 -0.0931,-0.28504 -0.1211,-0.23828 z m -0.0547,0.75586 c -0.006,0.0183 -0.0133,0.0363 -0.0195,0.0547 0.002,0.0684 0.005,0.0981 0.0137,0.0176 0.002,-0.024 0.004,-0.0482 0.006,-0.0723 z m -11.08399,7.875 c -0.0312,0.002 -0.0625,0.006 -0.0938,0.008 0.0131,7e-5 0.026,0.002 0.0391,0.002 -0.0179,0.002 0.0402,-0.007 0.0547,-0.01 z m 18.22071,-31.94531 c 0.053,-0.14251 -0.13762,0.2764 -0.16602,0.42578 -6.3e-4,0.003 -0.001,0.0102 -0.002,0.0137 0.056,-0.14634 0.11334,-0.29258 0.16797,-0.43945 z m -0.54688,5.77148 c 0.0475,-0.0473 -0.002,-0.002 -0.20898,0.18555 -0.0127,0.0241 -0.015,0.0254 -0.0274,0.0488 0.0924,-0.0923 0.20595,-0.20412 0.23633,-0.23437 z m 8.30859,1.0957 c -9.1e-4,0.002 -0.003,0.002 -0.004,0.004 0.0326,0.11003 0.0573,0.20941 0.0859,0.31445 0.004,-0.005 0.008,-0.0103 0.0117,-0.0156 -0.0288,-0.11987 -0.0818,-0.27616 -0.0938,-0.30274 z m -0.0351,0.0625 c -0.13338,0.22358 -0.26361,0.4486 -0.375,0.6836 -0.0757,0.15975 0.0699,0.0503 0.24805,-0.13672 0.0482,-0.1888 0.0885,-0.36664 0.12695,-0.54688 z m -0.32031,1.23047 c -0.37329,0.36281 -0.75972,0.7148 -1.06836,1.12891 -0.26304,0.3529 0.85099,-0.4555 0.99023,-0.87305 0.0289,-0.0867 0.0515,-0.1702 0.0781,-0.25586 z m 0.30078,0.34375 c -0.43678,0.67044 -0.91996,1.31746 -1.25586,2.04102 -0.13015,0.28034 0.2466,-0.11748 0.55859,-0.52149 0.0114,-0.16231 0.0206,-0.32531 0.043,-0.48632 0.0188,-0.13477 0.0498,0.10824 0.0762,0.32812 0.087,-0.12149 0.16916,-0.24232 0.21094,-0.32812 0.15765,-0.32378 0.27288,-0.68636 0.36719,-1.03321 z m -9.72266,0.53906 c -0.0158,0.0191 -0.006,0.005 -0.084,0.10157 -0.003,0.0104 -0.005,0.0208 -0.008,0.0312 0.0377,-0.0518 0.0699,-0.0972 0.0918,-0.12696 -2.9e-4,-0.002 2.9e-4,-0.004 0,-0.006 z m -1.87891,5.65625 c -0.0505,0.0563 -0.10508,0.11955 -0.13671,0.15235 -0.18734,0.32091 -0.28153,0.47078 -0.32032,0.51953 0.0527,-0.0333 0.18003,-0.18697 0.44336,-0.57031 0.005,-0.0339 0.009,-0.0677 0.0137,-0.10157 z m -0.0918,0.61719 c -0.0273,0.0497 -0.0582,0.0981 -0.084,0.14844 -0.0789,0.15448 -0.0471,0.69052 -0.0176,0.51953 0.0382,-0.22208 0.0687,-0.44504 0.10156,-0.66797 z m 6.78711,8.54102 c -0.0875,0.2356 -0.17211,0.47296 -0.26367,0.70703 -0.097,0.24793 0.1715,-0.33869 0.26367,-0.70703 z m -31.91797,3.82422 c 0.003,0.33152 0.005,0.66279 0.0156,0.99414 0.0101,0.32325 0.09,-0.66184 -0.006,-0.97071 -0.003,-0.008 -0.007,-0.0154 -0.01,-0.0234 z m 19.32226,1.43359 c -0.16958,0.1181 -0.30576,0.23462 -0.41406,0.33203 0.0961,-0.0505 0.19394,-0.0965 0.28711,-0.15234 0.0624,-0.0373 0.18655,-0.22116 0.12695,-0.17969 z" />
    </clipPath>
    <clipPath
       clipPathUnits="userSpaceOnUse"
       id="clipPath10638">
      <path
         id="path10640"
         style="fill:#ff0000;fill-opacity:1;fill-rule:nonzero;stroke:none"
         d="m 222.66602,124.67578 v 275.19141 h 290.3789 V 124.67578 Z m 106.0625,108.86328 c 2.29565,0.0965 3.64596,9.65073 5.44531,9.2461 0.0572,-1.0557 -0.008,-1.30928 0.2832,-0.14649 0.0559,-0.0449 0.11303,-0.11227 0.16992,-0.17773 0.12381,-1.68359 -0.094,-2.41182 0.30469,-0.82032 0.008,0.11663 0.0178,0.2169 0.0273,0.32813 0.20085,-0.36753 0.40902,-0.85647 0.625,-1.51367 0.0391,-0.11878 0.0781,-0.23862 0.11719,-0.35742 0.0159,-0.56438 0.006,-1.12832 0.0469,-1.69141 0.01,-0.13192 0.0335,0.26098 0.0469,0.39258 0.0255,0.25853 0.0777,0.51769 0.0684,0.77734 -0.0433,1.29454 -0.0974,1.39104 -0.46094,2.50391 -0.0167,0.051 0.0206,-0.10554 0.0312,-0.1582 0.0892,-1.78144 -0.0101,0.48979 -0.13086,0.76757 -0.0804,0.1849 -0.17106,0.36434 -0.26757,0.54102 -7.2e-4,0.55605 -0.0925,1.09948 -0.39454,1.70898 -0.0228,0.20832 -0.0636,0.40283 -0.13476,0.57032 -0.0987,0.23241 -0.21599,0.45529 -0.3418,0.67382 0.28469,1.5035 0.0386,2.55624 -0.81054,4 -0.13977,0.67192 -0.35437,1.33116 -0.51172,2 -0.36504,0.61453 -0.38075,0.65667 -0.4336,0.75782 -0.0825,0.37711 -0.18876,0.83275 -0.30664,1.32031 -0.004,0.0154 -0.005,0.0433 -0.01,0.0566 -0.003,0.007 -0.007,0.0142 -0.01,0.0215 -0.0472,0.19476 -0.1461,0.60664 -0.0586,0.25 5.8e-4,-0.0335 -0.004,-0.0679 -0.004,-0.10156 -0.54566,1.32426 -1.5155,2.47289 -1.91992,3.84766 -0.18303,0.62217 0.83337,-0.99516 1.25,-1.49219 0.0926,-0.26445 0.35881,-1.06105 0.27734,-0.79297 -0.12689,0.4174 -0.27609,0.82832 -0.41406,1.24219 -0.32015,0.57415 -0.62636,1.1568 -0.96094,1.72265 -0.0969,0.16391 -0.27818,0.26351 -0.38672,0.41993 -0.0734,0.10569 -0.0694,0.40277 -0.18164,0.33984 -0.1372,-0.0769 -0.01,-0.621 -0.0488,-0.46875 -0.11227,0.43544 -0.11712,0.8901 -0.17579,1.33594 -0.1428,0.38433 -0.28623,0.76946 -0.42773,1.1543 0.018,0.22036 0.0299,0.44113 0.0215,0.6621 -0.0798,2.10771 -0.40558,2.64726 -1.05664,4.46875 -0.47392,0.98339 -0.91007,1.98501 -1.42187,2.94922 -0.12472,0.23496 -0.32332,0.42354 -0.48242,0.63672 -0.69322,0.9288 -1.29389,1.91697 -1.97657,2.85352 -0.62816,0.83708 -0.90334,1.28292 -1.78711,2.01562 -1.38805,1.15083 -3.08154,1.74301 -4.58789,2.69922 -0.46986,0.24075 -0.93101,0.50095 -1.41015,0.72266 -1.80267,0.83408 -3.94241,1.20528 -5.90039,1.29101 l -0.59375,-0.0137 c -0.10622,-10e-4 -0.38752,0.0764 -0.32032,-0.006 0.0314,-0.0386 0.11021,-0.0602 0.19141,-0.0762 -0.73534,0.079 -1.47016,0.30135 -2.2207,0.19531 -2.43651,-0.12593 -5.18896,-0.4186 -7.55078,-0.98437 -0.34923,-0.0837 -0.6822,-0.22407 -1.02344,-0.33594 -2.17355,-0.79445 -4.48305,-1.62826 -6.12891,-3.33984 -1.53013,-1.59126 -1.34137,-1.28262 -1.85937,-2.40039 0.19112,0.0485 0.69746,0.29685 0.57226,0.14453 -0.22796,-0.2773 -0.62481,-0.3526 -0.91601,-0.5625 -0.54622,-0.39372 -1.13885,-0.74596 -1.5918,-1.24414 -1.20395,-1.32416 -2.16637,-3.22384 -1.9668,-5.06641 0.0799,-1.01127 0.0933,-0.26569 -0.34179,-1.72461 -0.48518,-1.62692 -0.82948,-3.15975 -0.9668,-4.85937 -0.0533,-0.97987 -0.15082,-1.95819 -0.16016,-2.93946 -0.0225,-2.24613 0.64355,0.53654 0.004,-3.14648 -0.12984,-0.74766 -0.44524,-1.45178 -0.63867,-2.18555 -0.15785,-0.59875 -0.11777,-1.26684 -0.41406,-1.81055 -0.28332,-0.51993 -0.83718,-0.83716 -1.25586,-1.25585 -7.13443,-7.13442 -0.029,-14.2399 7.10547,-7.10547 0.41869,0.41868 0.94608,0.75124 1.25586,1.25586 2.5893,4.21812 3.75653,7.39036 4.06445,12.26367 -0.10759,3.13176 -0.16864,1.71927 0.0644,4.24023 0.0555,0.33952 0.11504,0.67765 0.16797,1.01758 0.057,0.36569 0.0308,0.75285 0.16016,1.09961 0.33028,0.88521 0.2215,-0.1074 0.54297,1.45508 0.15393,0.74819 0.24568,1.50751 0.35546,2.26367 0.67835,0.69755 1.32956,1.42185 1.9961,2.13086 0.2976,0.49583 0.54927,1.02099 0.89258,1.48633 0.0501,0.0677 0.16564,0.0386 0.24804,0.0566 0.30671,0.067 0.004,-0.0357 0.60156,0.18164 0.18514,0.0673 0.36759,0.14439 0.55079,0.2168 0.35408,0.12449 0.70646,0.24851 1.06054,0.37304 0.24324,0.0783 0.48046,0.18353 0.73047,0.23633 0.1348,0.0285 1.32248,0.13146 1.48633,0.15039 1.09256,0.12642 2.18061,0.33693 3.28125,0.34375 0.003,2e-5 0.005,-10e-6 0.008,0 -0.0635,0.002 0.22738,-0.0354 0.3418,-0.0488 0.0834,-0.01 -0.18263,0.0293 -0.24805,0.041 0.47322,-0.0337 0.94619,-0.088 1.41992,-0.11328 0.10768,-0.006 1.18457,0.0169 1.29297,0.0195 0.13164,0.004 0.26653,0.0385 0.39453,0.008 0.0488,-0.0116 0.0369,-0.10598 0.084,-0.12305 0.23337,-0.0845 0.48791,-0.10165 0.72656,-0.16992 0.46752,-0.13362 0.7402,-0.26534 1.12891,-0.52148 0.13256,-0.0823 0.2619,-0.17063 0.39844,-0.2461 0.55095,-0.30469 1.10704,-0.60107 1.66406,-0.89453 0.25805,-0.13595 0.52099,-0.26085 0.78125,-0.39258 0.0548,-0.0736 0.11737,-0.15863 0.24219,-0.33007 0.63533,-0.92306 1.24581,-1.85644 1.9082,-2.76172 0.19634,-0.26835 0.45375,-0.49808 0.59961,-0.79688 0.12664,-0.25936 0.13464,-0.56291 0.20117,-0.84375 0.0745,-0.21827 0.1481,-0.43602 0.22266,-0.65429 -0.004,-0.16444 0.0111,-0.62247 0.0684,-0.8086 0.001,-0.005 0.004,8.6e-4 0.006,-0.002 0.0398,-0.77404 0.0565,-1.55149 0.23438,-2.30274 0.0761,-0.32156 0.22998,-0.61543 0.39648,-0.90429 0.021,-0.0781 0.0247,-0.0937 0.0371,-0.14063 0.002,-0.003 0.006,-0.0121 0.008,-0.0156 0.32149,-1.18308 0.47543,-1.98124 1.07812,-3.0625 1.07621,-1.93077 0.84458,-1.44583 0.96875,-1.51172 -0.0464,0.0421 0.21534,-0.45185 0.50781,-0.9961 0.0402,-0.3015 0.08,-0.60324 0.12305,-0.90429 0.11393,-0.27821 0.24006,-0.5528 0.3457,-0.83399 -0.074,0.18752 -0.17934,0.42694 -0.27148,0.52149 0.28375,-0.95552 0.48043,-1.94211 0.85156,-2.86719 0.0568,-0.14149 0.15914,-0.32057 0.27344,-0.50195 0.1108,-0.59483 0.23441,-1.18506 0.41015,-1.75977 -0.002,-0.2715 0.0134,-0.53847 0.0254,-0.90625 0.0113,-0.15213 -0.0163,-0.31275 0.0332,-0.45703 0.29316,-0.85418 0.53972,-1.73721 0.95898,-2.53516 0.0173,-0.48766 0.0996,-0.95614 0.39453,-1.48046 -0.015,0.001 0.0316,-0.46169 0.13477,-0.63477 -0.0412,0.20381 -0.0818,0.40752 -0.12305,0.61133 0.0365,-0.0637 0.0684,-0.12568 0.11133,-0.19141 0.0145,-0.0222 0.0335,-0.041 0.0488,-0.0625 0.0489,-0.21103 0.10128,-0.42066 0.16406,-0.64062 -0.0668,0.0931 -0.14064,0.18314 -0.19922,0.28125 0.0714,-0.35355 0.14153,-0.707 0.21289,-1.06055 0.0537,-0.92858 0.37723,-2.03165 0.42383,-2.33594 0.17916,-0.37861 0.35796,-0.75616 0.53711,-1.13476 0.74172,-1.56753 1.39811,-2.17138 1.99024,-2.14649 z m -3.12891,7.03711 c -0.0467,0.20134 -0.0815,0.39122 -0.11719,0.58203 0.0808,-0.25683 0.17452,-0.51904 0.27735,-0.78515 -0.0581,0.0639 -0.10998,0.13298 -0.16016,0.20312 z m -0.11719,0.58203 c -0.0861,0.27365 -0.16423,0.54226 -0.22851,0.80078 0.0354,-0.0525 0.0754,-0.10868 0.11914,-0.16796 0.0287,-0.2025 0.0683,-0.41302 0.10937,-0.63282 z m -0.22851,0.80078 c -0.033,0.049 -0.0877,0.11562 -0.11133,0.15625 -0.0411,0.0707 -0.0714,0.1465 -0.10938,0.21875 -0.007,0.18595 -0.0129,0.38036 -0.008,0.57813 0.0142,-0.0119 0.0242,-0.025 0.0391,-0.0371 0.0526,-0.29453 0.10804,-0.58862 0.18946,-0.91602 z m -0.18946,0.91602 c -0.0134,0.0752 -0.0233,0.14418 -0.0352,0.2168 0.003,0.0989 0.006,0.19083 0.008,0.29492 0.24753,1.19552 0.12519,0.64857 0.23242,-0.68164 -0.0713,0.0614 -0.144,0.12005 -0.20508,0.16992 z m -0.0352,0.2168 c -0.002,-0.0603 -0.002,-0.12099 -0.004,-0.17969 -0.29634,0.24898 -0.45828,0.48128 -0.42578,1.5918 0.0408,0.19105 0.0619,0.29007 0.0879,0.41015 0.0494,-0.0575 0.10045,-0.10857 0.15234,-0.16601 0.0225,-0.38568 0.0748,-0.95309 0.18946,-1.65625 z m -5.30078,15.05664 c -0.0144,0.0531 -0.0238,0.0915 -0.0391,0.14648 0.16489,-0.28549 0.34162,-0.56737 0.4668,-0.86914 0.1079,-0.26016 -0.27787,0.46673 -0.42773,0.72266 z m -0.0391,0.14648 c -0.002,0.003 -0.004,0.006 -0.006,0.01 -0.0403,0.1496 -0.0963,0.35882 -0.0703,0.26953 0.0328,-0.11258 0.0471,-0.1743 0.0762,-0.2793 z m -0.63672,3.2168 c -0.013,0.25289 -0.0303,0.50471 -0.0547,0.75586 0.059,-0.17263 0.11682,-0.34495 0.17578,-0.51758 -0.0399,-0.0739 -0.0931,-0.28504 -0.1211,-0.23828 z m -0.0547,0.75586 c -0.006,0.0183 -0.0133,0.0363 -0.0195,0.0547 0.002,0.0684 0.005,0.0981 0.0137,0.0176 0.002,-0.024 0.004,-0.0482 0.006,-0.0723 z m -11.08399,7.875 c -0.0312,0.002 -0.0625,0.006 -0.0938,0.008 0.0131,7e-5 0.026,0.002 0.0391,0.002 -0.0179,0.002 0.0402,-0.007 0.0547,-0.01 z m 18.22071,-31.94531 c 0.053,-0.14251 -0.13762,0.2764 -0.16602,0.42578 -6.3e-4,0.003 -0.001,0.0102 -0.002,0.0137 0.056,-0.14634 0.11334,-0.29258 0.16797,-0.43945 z m -0.54688,5.77148 c 0.0475,-0.0473 -0.002,-0.002 -0.20898,0.18555 -0.0127,0.0241 -0.015,0.0254 -0.0274,0.0488 0.0924,-0.0923 0.20595,-0.20412 0.23633,-0.23437 z m 8.30859,1.0957 c -9.1e-4,0.002 -0.003,0.002 -0.004,0.004 0.0326,0.11003 0.0573,0.20941 0.0859,0.31445 0.004,-0.005 0.008,-0.0103 0.0117,-0.0156 -0.0288,-0.11987 -0.0818,-0.27616 -0.0938,-0.30274 z m -0.0351,0.0625 c -0.13338,0.22358 -0.26361,0.4486 -0.375,0.6836 -0.0757,0.15975 0.0699,0.0503 0.24805,-0.13672 0.0482,-0.1888 0.0885,-0.36664 0.12695,-0.54688 z m -0.32031,1.23047 c -0.37329,0.36281 -0.75972,0.7148 -1.06836,1.12891 -0.26304,0.3529 0.85099,-0.4555 0.99023,-0.87305 0.0289,-0.0867 0.0515,-0.1702 0.0781,-0.25586 z m 0.30078,0.34375 c -0.43678,0.67044 -0.91996,1.31746 -1.25586,2.04102 -0.13015,0.28034 0.2466,-0.11748 0.55859,-0.52149 0.0114,-0.16231 0.0206,-0.32531 0.043,-0.48632 0.0188,-0.13477 0.0498,0.10824 0.0762,0.32812 0.087,-0.12149 0.16916,-0.24232 0.21094,-0.32812 0.15765,-0.32378 0.27288,-0.68636 0.36719,-1.03321 z m -9.72266,0.53906 c -0.0158,0.0191 -0.006,0.005 -0.084,0.10157 -0.003,0.0104 -0.005,0.0208 -0.008,0.0312 0.0377,-0.0518 0.0699,-0.0972 0.0918,-0.12696 -2.9e-4,-0.002 2.9e-4,-0.004 0,-0.006 z m -1.87891,5.65625 c -0.0505,0.0563 -0.10508,0.11955 -0.13671,0.15235 -0.18734,0.32091 -0.28153,0.47078 -0.32032,0.51953 0.0527,-0.0333 0.18003,-0.18697 0.44336,-0.57031 0.005,-0.0339 0.009,-0.0677 0.0137,-0.10157 z m -0.0918,0.61719 c -0.0273,0.0497 -0.0582,0.0981 -0.084,0.14844 -0.0789,0.15448 -0.0471,0.69052 -0.0176,0.51953 0.0382,-0.22208 0.0687,-0.44504 0.10156,-0.66797 z m 6.78711,8.54102 c -0.0875,0.2356 -0.17211,0.47296 -0.26367,0.70703 -0.097,0.24793 0.1715,-0.33869 0.26367,-0.70703 z m -31.91797,3.82422 c 0.003,0.33152 0.005,0.66279 0.0156,0.99414 0.0101,0.32325 0.09,-0.66184 -0.006,-0.97071 -0.003,-0.008 -0.007,-0.0154 -0.01,-0.0234 z m 19.32226,1.43359 c -0.16958,0.1181 -0.30576,0.23462 -0.41406,0.33203 0.0961,-0.0505 0.19394,-0.0965 0.28711,-0.15234 0.0624,-0.0373 0.18655,-0.22116 0.12695,-0.17969 z" />
    </clipPath>
  </defs>
  <sodipodi:namedview
     id="namedview40"
     pagecolor="#ffffff"
     bordercolor="#666666"
     borderopacity="1.0"
     inkscape:pageshadow="2"
     inkscape:pageopacity="0.0"
     inkscape:pagecheckerboard="0"
     inkscape:document-units="px"
     showgrid="false"
     inkscape:snap-midpoints="false"
     showguides="false"
     inkscape:snap-intersection-paths="true"
     inkscape:object-nodes="true"
     inkscape:zoom="1.7469907"
     inkscape:cx="81.282631"
     inkscape:cy="92.444682"
     inkscape:window-width="1366"
     inkscape:window-height="705"
     inkscape:window-x="-8"
     inkscape:window-y="-8"
     inkscape:window-maximized="1"
     inkscape:current-layer="svg38"
     width="111pt"
     units="px"
     height="110px" />
  <g
     transform="matrix(0.02987013,0,0,-0.03211599,-15.439291,121.10209)"
     fill="#000000"
     stroke="none"
     id="g36"
     style="opacity:1;fill:#000000;fill-opacity:0.701961">
    <path
       id="path2"
       style="fill:#000000;fill-opacity:0.701961;stroke-width:0.133333"
       transform="matrix(7.5,0,0,-7.5,0,4600)"
       d="m 494.0332,115.98242 c -1.46666,-0.25 -1.70052,0.15065 -1.36718,1.08399 0.53333,1.2 2.13346,5.20078 3.46679,8.80078 1.33334,3.6 2.93295,6.93203 3.59961,7.33203 1.2,0.93333 8.26758,18.80169 8.26758,21.06836 0,0.8 0.53255,1.73333 1.19922,2 0.66667,0.13333 2.40052,3.33307 3.86719,7.0664 l 2.5332,6.53321 1.06641,-4.26758 c 0.4,-2.26667 1.46809,-4.26563 2.13476,-4.26563 0.66667,0 1.19922,-1.19987 1.19922,-2.5332 0,-1.46667 0.66732,-3.0668 1.33398,-3.4668 1.73334,-1.06666 5.33204,7.33269 5.33204,12.66602 0,2.13333 0.66731,4 1.33398,4 0.8,0 1.33398,2.66667 1.33398,6 0,3.33333 -0.53398,6 -1.33398,6 -0.66667,0 -1.33398,1.99987 -1.33398,4.5332 0,6.4 -6.39935,30.00039 -8.66602,32.40039 -1.06667,1.06667 -2.40078,3.4668 -2.80078,5.4668 -0.93333,3.86667 -4.39909,11.19896 -5.73242,12.26563 -0.4,0.4 -2.53412,4.13424 -4.80078,8.26757 -2.13334,4.26667 -4.40026,7.73243 -4.9336,7.73243 -0.53333,0 -1.0664,0.53398 -1.0664,1.33398 0,2.93333 -10.00026,17.73359 -16.9336,24.93359 -1.73333,1.73334 -3.0664,3.59896 -3.0664,4.26563 0,0.53333 -2.66524,4.00156 -5.86524,7.60156 -3.2,3.6 -8.53437,9.46641 -11.73437,13.06641 -3.06667,3.73333 -8.66563,9.33268 -12.26563,12.66601 -3.6,3.33334 -11.3345,10.79987 -17.20117,16.53321 -5.86667,5.73333 -13.99948,12.93333 -18.13281,16 -4.13334,2.93333 -8.00078,6.13307 -8.80078,7.0664 -0.66667,0.8 -5.2,4.13399 -10,7.33399 -4.8,3.2 -9.2,6.53398 -10,7.33398 -0.66667,0.93333 -4.66602,3.46628 -8.66602,5.59961 -4,2.13333 -9.46667,5.19883 -12,6.79883 C 357.73333,389.06589 335.06732,400 333.33398,400 332.66732,400 332,400.53255 332,401.19922 c 0,0.66667 -4.00026,2.40052 -8.93359,3.86719 -28,8.4 -45.33282,10.13424 -60.13282,6.26757 -4.93333,-1.33333 -9.8664,-3.20143 -11.0664,-4.13476 -2.93334,-2.66667 -6.53334,-2.26641 -10,0.93359 l -2.9336,2.66797 2.9336,2.93164 c 8.66666,8.53334 28.53346,12.66706 49.46679,10.40039 14.8,-1.73333 30.53269,-5.6 32.66602,-8 0.4,-0.4 4.93333,-2.26666 10,-4 10.53333,-3.46666 23.59935,-9.33216 24.66602,-10.79883 0.4,-0.53333 6.13463,-3.86731 12.66796,-7.33398 6.66667,-3.46667 12.26602,-6.80065 12.66602,-7.33398 0.93333,-1.2 15.99974,-11.06563 19.06641,-12.26563 1.2,-0.53333 2.26757,-1.46615 2.26757,-2.13281 0,-0.66667 3.19974,-3.33386 7.06641,-5.86719 6.93333,-4.66667 9.86667,-7.20104 28,-23.73437 16.53333,-15.2 40.93359,-40.53269 40.93359,-42.66602 0,-0.4 2.13217,-3.19948 4.79883,-6.13281 2.66667,-2.8 6.66745,-7.99961 8.80078,-11.59961 C 497.06693,278.80091 499.33333,276 500,276 c 0.53333,0 1.99974,-2.00039 3.06641,-4.40039 1.2,-2.26667 3.19935,-5.46641 4.66601,-7.06641 1.46667,-1.46666 4.40039,-6.26601 6.40039,-10.66601 2.13334,-4.26667 4.26797,-8.13321 4.66797,-8.53321 0.53333,-0.4 2.66602,-4.93333 4.66602,-10 2.13333,-5.2 4.26601,-9.6 4.66601,-10 1.73334,-1.2 6.4,-16.9332 8,-26.5332 0.93334,-5.2 2.13464,-9.4668 2.66797,-9.4668 0.66667,0 1.19922,-5.06731 1.19922,-11.33398 0,-6.66667 -0.53398,-11.33398 -1.33398,-11.33398 -0.66667,0 -1.33204,-1.33308 -1.33204,-3.06641 0,-1.6 -1.60065,-6.53359 -3.33398,-10.93359 -1.86667,-4.4 -3.33398,-8.39883 -3.33398,-8.79883 0,-0.4 3.33398,-1.46758 7.33398,-2.26758 8.66667,-1.73333 13.06758,-4.93333 8.26758,-6 -1.6,-0.26667 -8.00091,-2.53359 -14.26758,-4.93359 -6.26667,-2.26667 -12.53333,-4.5336 -14,-4.9336 -1.46667,-0.53333 -2.93398,-1.3319 -3.33398,-1.86523 -0.4,-0.66667 -5.73191,-2.93308 -11.86524,-5.06641 -4.6,-1.66667 -7.30091,-2.56836 -8.76758,-2.81836 z"
       clip-path="url(#clipPath10628)" />
    <path
       style="fill:#000000;fill-opacity:0.701961;stroke-width:0.133333"
       d="m 386.75,124.81641 c -9.38333,-0.28334 -18.68333,-0.14909 -24.75,0.51757 -18.4,2.13334 -47.73333,9.9987 -50,13.33204 -0.4,0.53333 -5.19935,3.20052 -10.66602,5.86718 -14.8,7.2 -18.40052,9.86771 -35.86718,27.73438 -14.93334,15.06666 -18.6668,20 -23.4668,30 -2.13333,4.66666 -4.26602,8.39844 -4.66602,8.39844 -0.53333,0 -2.66744,5.20156 -4.80078,11.60156 -2.13333,6.53333 -4.26744,12.1332 -4.80078,12.5332 -1.86666,1.33333 -5.0664,27.06602 -5.0664,40.66602 0,13.86666 3.46679,38.26692 5.46679,38.93359 0.66667,0.26667 1.20117,1.06719 1.20117,1.86719 0,3.2 5.59974,19.73203 7.06641,21.33203 1.06667,0.93333 3.33203,5.20065 5.33203,9.33398 1.86667,4.26667 4.0013,7.73243 4.66797,7.73243 0.8,0 1.73281,1.46783 2.13281,3.20117 0.4,1.73333 3.19948,5.59935 6.13282,8.66601 2.93333,2.93334 5.33398,5.86706 5.33398,6.40039 0,1.86667 15.19909,15.46589 23.73242,21.19922 l 8.40039,5.73438 8.26758,-1.59961 8.26563,-1.73438 -4.26563,-2.26562 c -2.4,-1.2 -6.13372,-3.20039 -8.40039,-4.40039 -2.13333,-1.06667 -4,-2.66784 -4,-3.20117 0,-0.66667 -1.59961,-2.13256 -3.59961,-3.19922 -2.13333,-1.06667 -7.33437,-5.59948 -11.73437,-10.13282 -4.4,-4.53333 -9.3336,-9.4664 -10.9336,-11.0664 -1.73333,-1.46667 -3.0664,-3.33477 -3.0664,-4.13477 0,-0.8 -1.86615,-3.59948 -4.13282,-6.13281 -2.26666,-2.53333 -5.73294,-8.13372 -7.59961,-12.40039 C 249.20026,335.46628 247.19987,332 246.5332,332 c -1.06666,0 -5.33255,-12.53398 -7.19922,-21.33398 -0.53333,-2.53334 -1.46666,-4.93204 -2,-5.33204 -0.53333,-0.4 -1.33437,-2.93489 -1.73437,-5.60156 -0.53333,-4 -0.13346,-5.59844 2.5332,-8.39844 1.73334,-1.86666 3.20117,-4.26783 3.20117,-5.20117 0,-0.93333 2.66667,-4.66562 6,-8.26562 3.2,-3.6 6,-7.20052 6,-7.86719 0,-0.8 3.19922,-4.13398 7.19922,-7.33398 9.73334,-8.26667 11.73373,-13.59935 12.40039,-34.66602 0.8,-24.8 0.93217,-25.19948 10.79883,-20.13281 3.33334,1.73333 6.00091,4.6664 8.26758,9.0664 1.86667,3.46667 3.73424,6.66641 4.26758,7.06641 0.4,0.4 1.86497,5.73333 2.93164,12 3.73333,19.46667 7.33489,26.66602 13.60156,26.66602 4.26667,0 5.8655,-2.79961 8.79883,-15.59961 1.33333,-6.53334 3.06719,-11.99948 3.86719,-12.13282 0.66666,-0.26666 0,0 3.26176,-1.39465 0.13333,-3.73333 3.53902,-8.60509 9.53902,-9.67175 7.06666,-1.33334 18.39883,-0.26667 20.79883,2 0.93333,0.8 3.19974,2.53242 5.0664,3.73242 3.06667,1.86667 3.60013,3.59974 5.4668,17.06641 1.2,8.26666 2.66732,15.33385 3.33398,15.86718 0.66667,0.4 2.26628,4.26654 3.59961,8.53321 1.2,4.26666 3.46693,8.93372 4.9336,10.40039 1.33333,1.33333 2.5332,3.06575 2.5332,3.73242 0,2 6.93242,6.40013 11.73242,7.4668 7.06667,1.46666 7.20026,-1.86576 0.9336,-19.73243 -1.33334,-3.46666 -2.7987,-6.26757 -3.33204,-6.26757 -1.46666,0 -4,-7.73178 -4,-12.39844 v -4 L 396,251.19922 c 21.33333,2.66667 20.26758,2.6681 22.26758,0.13476 2.4,-3.46666 2.13307,-9.7332 -0.9336,-16.5332 -4.66666,-10.13333 -3.06822,-13.60013 8.39844,-19.4668 2.66667,-1.46666 4.9336,-2.93346 4.9336,-3.46679 0,-0.53334 1.2013,-1.19961 2.66796,-1.59961 C 436.40065,209.46758 440,201.86667 440,196 c 0,-1.71335 0.55564,-2.67242 1.07031,-3.21289 10e-4,-0.0858 0.006,-0.29567 0.006,-0.33203 v -3.0918 c -0.017,-3.30124 -0.0922,-1.98813 0.5,-0.26562 0.13198,-0.41772 0.28982,-0.79964 0.46485,-1.1543 -0.21416,-0.44772 -0.25504,-1.27734 -0.57422,-1.27734 -0.66667,0 -1.46719,-1.99844 -1.86719,-4.39844 -0.4,-2.26667 -1.06628,-5.60117 -1.59961,-7.20117 -0.8,-2.53334 -0.2668,-3.06654 4.5332,-4.53321 C 445.59987,169.59987 448,168.53333 448,168 c 0,-0.53333 2.00039,-1.46719 4.40039,-1.86719 2.26667,-0.4 5.99948,-2.26666 8.13281,-4 l 4,-3.0664 5.73438,3.46679 c 3.2,1.86667 5.73242,4.26732 5.73242,5.33399 0,2.13333 -7.99974,9.59896 -13.06641,12.26562 -6.53333,3.33334 -8.93307,6.13373 -7.0664,8.40039 2.26666,2.66667 13.99896,5.20039 20.26562,4.40039 6.93334,-0.93333 9.06667,-2.79974 10,-9.0664 1.06667,-6.8 3.46706,-6.53399 8.40039,0.66601 2.26667,3.2 4.80104,6.13321 5.73438,6.53321 1.06666,0.26666 3.19831,3.33411 4.93164,6.80078 4.53333,8.8 5.60013,8.26523 7.4668,-4.13477 0.8,-4.8 0.40143,-5.86536 -1.86524,-7.33203 -1.6,-0.93333 -2.80078,-2.26641 -2.80078,-3.06641 0,-2 -17.06732,-19.6 -23.33398,-24 -2.93334,-2.13333 -5.99935,-4.53346 -6.66602,-5.46679 -1.73333,-2 -14.26693,-9.2 -20.93359,-12 -2.8,-1.2 -5.06641,-2.66784 -5.06641,-3.20117 0,-0.53334 -1.06758,-1.33243 -2.26758,-1.73243 -1.33333,-0.4 -8.39909,-2.53268 -15.73242,-4.66601 -7.33333,-2.13334 -17.2,-4.6668 -22,-5.4668 -6.4,-1 -15.86667,-1.70104 -25.25,-1.98437 z"
       transform="matrix(7.5,0,0,-7.5,0,4600)"
       id="path4" />
    <path
       d="m 3992,2746 c -20,-46 -21,-61 -16,-147 7,-101 -2,-229 -16,-229 -5,0 -36,18 -69,40 -33,22 -66,40 -73,40 -8,0 -22,-13 -31,-30 -10,-16 -25,-36 -33,-45 -14,-13 -14,-15 0,-15 9,0 16,-4 16,-10 0,-11 53,-26 127,-35 l 51,-7 -20,-71 c -11,-40 -23,-80 -25,-89 -8,-29 -33,-21 -33,10 0,44 -14,58 -44,44 -17,-8 -28,-24 -36,-54 -16,-64 -18,-68 -34,-74 -19,-7 -106,44 -106,62 0,14 -30,34 -53,34 -8,0 -77,-62 -154,-137 -78,-76 -166,-156 -197,-178 -36,-26 -59,-51 -66,-72 -7,-18 -16,-33 -21,-33 -17,0 -9,-21 18,-46 25,-23 33,-25 83,-19 30,4 57,10 60,14 23,31 182,53 212,29 10,-7 14,-17 10,-23 -13,-18 -67,-52 -127,-80 -33,-16 -63,-32 -66,-37 -11,-17 -177,-66 -279,-83 -72,-11 -150,-15 -248,-13 -89,1 -146,-1 -150,-8 -4,-5 -29,-19 -55,-31 l -48,-20 73,-11 c 261,-39 515,-13 703,73 137,62 190,89 198,102 4,6 28,25 55,41 51,33 192,163 192,178 0,5 14,22 31,39 18,16 38,44 46,62 7,18 17,33 22,33 5,0 21,29 36,65 16,36 32,65 36,65 9,0 55,144 65,205 4,22 12,43 18,47 17,11 15,390 -1,396 -7,2 -13,13 -13,25 0,47 -15,44 -38,-7 z"
       id="path6"
       style="fill:#000000;fill-opacity:0.701961" />
    <path
       d="m 3350,2647 c -57,-28 -100,-57 -100,-67 0,-4 -16,-24 -35,-43 -36,-36 -46,-76 -22,-94 22,-18 161,-35 190,-24 29,11 33,25 17,67 -8,20 -6,39 10,83 37,105 25,121 -60,78 z"
       id="path8"
       style="fill:#000000;fill-opacity:0.701961" />
    <path
       d="m 2617,2428 c -6,-20 19,-106 36,-122 8,-9 20,-38 27,-66 18,-74 71,-124 161,-151 88,-27 190,-24 231,6 60,44 47,70 -50,91 -82,18 -142,48 -142,70 0,8 -4,14 -8,14 -4,0 -36,28 -70,61 -85,84 -173,130 -185,97 z"
       id="path10"
       style="fill:#000000;fill-opacity:0.701961" />
    <path
       d="m 641,681 c -66,-27 -81,-51 -81,-132 0,-57 4,-72 23,-92 66,-72 234,-75 292,-5 21,25 25,40 25,98 0,58 -4,73 -25,98 -43,51 -152,66 -234,33 z m 153,-61 c 13,-13 19,-93 8,-121 -13,-32 -63,-45 -110,-28 -25,8 -33,18 -38,45 -10,57 3,101 34,113 28,11 91,5 106,-9 z"
       id="path12"
       style="fill:#000000;fill-opacity:0.701961" />
    <path
       d="m 3037,684 c -89,-28 -124,-131 -72,-214 20,-31 35,-42 77,-55 63,-18 111,-19 161,-1 52,19 77,44 77,78 0,26 -3,28 -40,28 -34,0 -42,-4 -50,-24 -11,-29 -61,-43 -101,-28 -59,23 -63,133 -6,160 38,18 94,8 102,-18 5,-16 15,-20 51,-20 38,0 44,3 44,20 0,47 -79,91 -160,89 -19,0 -56,-7 -83,-15 z"
       id="path14"
       style="fill:#000000;fill-opacity:0.701961" />
    <path
       d="m 4935,687 c -48,-15 -105,-84 -105,-128 0,-34 29,-96 56,-121 43,-38 147,-48 216,-22 51,20 78,47 78,80 0,21 -5,24 -39,24 -31,0 -43,-6 -58,-25 -15,-21 -27,-26 -66,-27 -27,0 -54,5 -60,11 -16,16 -15,127 0,142 7,7 33,12 58,13 37,1 51,-4 65,-21 13,-16 29,-23 54,-23 31,0 36,3 36,23 0,34 -20,54 -73,71 -55,19 -106,19 -162,3 z"
       id="path16"
       style="fill:#000000;fill-opacity:0.701961" />
    <path
       d="M 983,684 C 973,680 970,641 970,539 V 400 h 50 50 v 34 33 l 75,6 c 56,4 80,10 96,26 13,12 27,21 31,21 15,0 29,54 23,87 -4,22 -16,38 -42,54 -31,20 -53,23 -147,26 -61,1 -117,0 -123,-3 z m 191,-60 c 10,-4 16,-18 16,-39 0,-38 -12,-45 -76,-45 h -44 v 45 45 h 44 c 24,0 51,-3 60,-6 z"
       id="path18"
       style="fill:#000000;fill-opacity:0.701961" />
    <path
       d="m 1353,683 c -10,-3 -13,-41 -13,-138 0,-112 2,-134 16,-139 9,-3 61,-6 117,-6 122,0 182,21 193,66 18,72 -39,114 -154,114 -70,0 -73,1 -70,23 3,21 8,22 106,25 100,3 102,3 102,26 0,13 -7,27 -16,30 -19,7 -263,7 -281,-1 z m 222,-184 c 9,-29 3,-33 -70,-37 l -65,-4 v 31 31 h 64 c 57,0 65,-3 71,-21 z"
       id="path20"
       style="fill:#000000;fill-opacity:0.701961" />
    <path
       d="M 1730,545 V 400 h 43 c 37,0 48,5 80,40 20,23 37,45 37,50 0,12 50,70 61,70 5,0 9,-36 9,-81 v -80 l 43,3 42,3 v 140 140 l -46,3 c -38,2 -50,-1 -71,-23 -14,-14 -34,-41 -43,-61 -16,-34 -52,-74 -66,-74 -4,0 -7,19 -7,43 1,120 2,117 -42,117 h -40 z"
       id="path22"
       style="fill:#000000;fill-opacity:0.701961" />
    <path
       d="m 2100,660 c 0,-29 1,-30 50,-30 h 49 l 3,-112 3,-113 47,-3 47,-3 3,113 3,113 53,3 c 51,3 53,4 50,30 l -3,27 -152,3 -153,3 z"
       id="path24"
       style="fill:#000000;fill-opacity:0.701961" />
    <path
       d="m 2525,670 c -3,-11 -10,-20 -15,-20 -5,0 -18,-24 -28,-52 -11,-29 -34,-80 -51,-113 -40,-79 -40,-85 9,-85 33,0 42,4 52,25 11,24 16,25 90,25 74,0 79,-1 90,-25 9,-21 18,-25 55,-25 23,0 43,5 43,10 0,11 -25,66 -48,105 -6,11 -23,52 -38,90 -15,39 -32,73 -38,77 -6,4 -34,8 -63,8 -43,0 -53,-3 -58,-20 z m 80,-96 c 21,-51 20,-54 -25,-54 h -39 l 17,45 c 9,25 20,45 24,45 4,0 15,-16 23,-36 z"
       id="path26"
       style="fill:#000000;fill-opacity:0.701961" />
    <path
       d="m 3344,677 c -2,-7 -3,-71 -2,-143 l 3,-129 148,-3 147,-3 v 30 30 l -102,3 c -102,3 -103,3 -103,28 0,24 2,25 78,28 l 78,3 -3,27 c -3,26 -4,27 -81,30 -74,3 -78,4 -75,25 3,21 8,22 106,25 l 102,3 v 29 30 h -145 c -110,0 -147,-3 -151,-13 z"
       id="path28"
       style="fill:#000000;fill-opacity:0.701961" />
    <path
       d="M 3700,545 V 400 h 45 c 45,0 45,0 45,35 v 35 h 53 c 114,0 172,39 172,115 0,80 -52,105 -219,105 h -96 z m 204,79 c 10,-4 16,-18 16,-39 0,-39 -12,-45 -81,-45 h -49 v 45 45 h 49 c 27,0 56,-3 65,-6 z"
       id="path30"
       style="fill:#000000;fill-opacity:0.701961" />
    <path
       d="m 4074,677 c -2,-7 -3,-71 -2,-143 l 3,-129 h 132 c 125,0 133,1 157,24 34,32 34,74 1,105 -22,21 -23,25 -10,36 18,15 20,60 3,82 -22,26 -77,38 -180,38 -72,0 -100,-4 -104,-13 z m 201,-72 c 0,-17 -8,-20 -57,-23 -57,-3 -58,-2 -58,23 0,25 1,26 58,23 49,-3 57,-6 57,-23 z m 13,-94 c 8,-5 12,-17 10,-27 -3,-16 -14,-19 -71,-22 l -67,-3 v 31 c 0,30 0,30 58,30 31,0 63,-4 70,-9 z"
       id="path32"
       style="fill:#000000;fill-opacity:0.701961" />
    <path
       d="m 4457,683 c -4,-3 -7,-69 -7,-145 V 400 h 54 c 51,0 54,2 80,40 14,22 26,41 26,44 0,2 16,21 35,42 l 35,38 v -76 c 0,-84 3,-88 66,-88 h 34 v 145 145 h -50 -49 l -58,-79 c -32,-44 -64,-80 -70,-80 -10,-1 -13,21 -13,79 v 80 h -38 c -21,0 -42,-3 -45,-7 z"
       id="path34"
       style="fill:#000000;fill-opacity:0.701961" />
  </g>
  <ellipse
     style="opacity:0.753205;fill:none;fill-opacity:0.701961;fill-rule:evenodd;stroke:none;stroke-width:7.18146;stroke-opacity:0.533333"
     id="path11684"
     cx="284.92862"
     cy="206.02635"
     rx="115.77381"
     ry="110.2086" />
</svg>
